<?xml version="1.0" encoding="utf-8"?>
<svg xmlns="http://www.w3.org/2000/svg" viewBox="0 0 500 500" xmlns:bx="https://boxy-svg.com" width="500px" height="500px"><defs><bx:export><bx:file format="svg"/></bx:export></defs><path d="M 404.617 0.535 C 360.004 4.86 332.235 16.809 307.767 42.188 C 293.881 56.642 295.589 54.024 234.36 153.037 C 192.251 221.208 170.172 256.944 145.59 296.435 C 139.217 306.792 125.104 329.553 114.293 347.08 C 103.481 364.606 92.783 382.019 90.393 385.775 C 81.402 400.114 24.612 492.868 23.36 495.372 C 22.109 497.648 22.336 497.989 25.181 499.127 C 29.847 500.949 79.013 499.696 93.239 497.421 C 140.241 489.681 175.407 469.878 199.307 437.557 C 208.981 424.356 232.653 385.433 232.653 382.702 C 232.653 379.06 232.995 379.174 205.339 376.101 C 193.161 374.735 178.025 373.028 171.879 372.346 L 160.499 370.98 L 180.984 363.696 C 208.412 354.023 237.092 342.641 247.448 337.406 C 267.364 327.277 286.371 313.393 299.458 299.508 C 307.538 290.859 310.384 286.761 320.513 269.691 C 324.61 262.748 338.494 239.531 351.241 217.908 C 364.102 196.284 380.49 168.629 387.66 156.452 C 394.943 144.274 410.535 118.098 422.371 98.41 C 442.629 64.722 448.205 55.39 469.829 19.995 C 479.048 4.86 479.388 2.583 473.129 1.217 C 467.439 0.079 415.656 -0.49 404.617 0.535" style=""/><path fill="#005" d="M1242.3 776.7c.9.2 2.3.2 3 0 .6-.3-.1-.5-1.8-.5-1.6 0-2.2.2-1.2.5m17.5 1c.6.2 1.8.2 2.5 0 .6-.3.1-.5-1.3-.5s-1.9.2-1.2.5m-134.9 29c-1.3 1.6-1.2 1.7.4.4.9-.7 1.7-1.5 1.7-1.7 0-.8-.8-.3-2.1 1.3m-136.3 210c-.6 1.4-.5 1.5.5.6.7-.7 1-1.5.7-1.8s-.9.2-1.2 1.2m126.3 13c-1.3 1.6-1.2 1.7.4.4.9-.7 1.7-1.5 1.7-1.7 0-.8-.8-.3-2.1 1.3M979 1032c-.6 1.1-.8 2-.6 2 .3 0 1-.9 1.6-2s.8-2 .6-2c-.3 0-1 .9-1.6 2"/></svg>