<svg xmlns="http://www.w3.org/2000/svg" viewBox="0 0 2048 2048"><path d="M1203.1 775c-39.2 3.8-63.6 14.3-85.1 36.6-12.2 12.7-10.7 10.4-64.5 97.4-37 59.9-56.4 91.3-78 126-5.6 9.1-18 29.1-27.5 44.5s-18.9 30.7-21 34c-7.9 12.6-57.8 94.1-58.9 96.3-1.1 2-.9 2.3 1.6 3.3 4.1 1.6 47.3.5 59.8-1.5 41.3-6.8 72.2-24.2 93.2-52.6 8.5-11.6 29.3-45.8 29.3-48.2 0-3.2.3-3.1-24-5.8-10.7-1.2-24-2.7-29.4-3.3l-10-1.2 18-6.4c24.1-8.5 49.3-18.5 58.4-23.1 17.5-8.9 34.2-21.1 45.7-33.3 7.1-7.6 9.6-11.2 18.5-26.2 3.6-6.1 15.8-26.5 27-45.5 11.3-19 25.7-43.3 32-54 6.4-10.7 20.1-33.7 30.5-51 17.8-29.6 22.7-37.8 41.7-68.9 8.1-13.3 8.4-15.3 2.9-16.5-5-1-50.5-1.5-60.2-.6m42.2 1.7c-.7.2-2.1.2-3 0-1-.3-.4-.5 1.2-.5 1.7 0 2.4.2 1.8.5m17 1c-.7.2-1.9.2-2.5 0-.7-.3-.2-.5 1.2-.5s1.9.2 1.3.5M1127 805.4c0 .2-.8 1-1.7 1.7-1.6 1.3-1.7 1.2-.4-.4s2.1-2.1 2.1-1.3m-137.9 211.9c-1 .9-1.1.8-.5-.6.3-1 .9-1.5 1.2-1.2s0 1.1-.7 1.8m127.9 11.1c0 .2-.8 1-1.7 1.7-1.6 1.3-1.7 1.2-.4-.4s2.1-2.1 2.1-1.3m-137 3.6c-.6 1.1-1.3 2-1.6 2-.2 0 0-.9.6-2s1.3-2 1.6-2c.2 0 0 .9-.6 2"/><path fill="#005" d="M1242.3 776.7c.9.2 2.3.2 3 0 .6-.3-.1-.5-1.8-.5-1.6 0-2.2.2-1.2.5m17.5 1c.6.2 1.8.2 2.5 0 .6-.3.1-.5-1.3-.5s-1.9.2-1.2.5m-134.9 29c-1.3 1.6-1.2 1.7.4.4.9-.7 1.7-1.5 1.7-1.7 0-.8-.8-.3-2.1 1.3m-136.3 210c-.6 1.4-.5 1.5.5.6.7-.7 1-1.5.7-1.8s-.9.2-1.2 1.2m126.3 13c-1.3 1.6-1.2 1.7.4.4.9-.7 1.7-1.5 1.7-1.7 0-.8-.8-.3-2.1 1.3M979 1032c-.6 1.1-.8 2-.6 2 .3 0 1-.9 1.6-2s.8-2 .6-2c-.3 0-1 .9-1.6 2"/></svg>